<svg xmlns="http://www.w3.org/2000/svg" viewBox="0 0 400 300">
  <!-- Background -->
  <rect width="400" height="300" fill="#f5f5f5" />
  
  <!-- Website Mockup -->
  <rect x="50" y="50" width="300" height="200" rx="5" ry="5" fill="#FFFFFF" stroke="#DDDDDD" stroke-width="2" />
  
  <!-- Header -->
  <rect x="50" y="50" width="300" height="40" rx="5" ry="5" fill="#4285F4" />
  
  <!-- Navigation Items -->
  <rect x="70" y="65" width="30" height="10" rx="2" ry="2" fill="#FFFFFF" opacity="0.8" />
  <rect x="110" y="65" width="30" height="10" rx="2" ry="2" fill="#FFFFFF" opacity="0.8" />
  <rect x="150" y="65" width="30" height="10" rx="2" ry="2" fill="#FFFFFF" opacity="0.8" />
  <rect x="190" y="65" width="30" height="10" rx="2" ry="2" fill="#FFFFFF" opacity="0.8" />
  
  <!-- Hero Section -->
  <rect x="70" y="110" width="120" height="15" rx="2" ry="2" fill="#333333" />
  <rect x="70" y="135" width="180" height="10" rx="2" ry="2" fill="#666666" />
  <rect x="70" y="155" width="180" height="10" rx="2" ry="2" fill="#666666" />
  <rect x="70" y="180" width="80" height="25" rx="4" ry="4" fill="#EA4335" />
  
  <!-- Image Placeholder -->
  <rect x="270" y="110" width="60" height="60" rx="4" ry="4" fill="#FBBC05" />
  <path d="M280,130 L290,120 L300,135 L310,125 L320,140" stroke="#FFFFFF" stroke-width="2" fill="none" />
  <circle cx="290" cy="125" r="3" fill="#FFFFFF" />
</svg>