<svg xmlns="http://www.w3.org/2000/svg" viewBox="0 0 400 300">
  <!-- Background -->
  <rect width="400" height="300" fill="#f5f5f5" />
  
  <!-- Dashboard Mockup -->
  <rect x="50" y="50" width="300" height="200" rx="5" ry="5" fill="#FFFFFF" stroke="#DDDDDD" stroke-width="2" />
  
  <!-- Sidebar -->
  <rect x="50" y="50" width="60" height="200" rx="5" ry="5" fill="#4285F4" />
  
  <!-- Sidebar Menu Items -->
  <rect x="65" y="70" width="30" height="5" rx="2.5" ry="2.5" fill="#FFFFFF" opacity="0.8" />
  <rect x="65" y="85" width="30" height="5" rx="2.5" ry="2.5" fill="#FFFFFF" opacity="0.8" />
  <rect x="65" y="100" width="30" height="5" rx="2.5" ry="2.5" fill="#FFFFFF" opacity="0.8" />
  <rect x="65" y="115" width="30" height="5" rx="2.5" ry="2.5" fill="#FFFFFF" opacity="0.8" />
  <rect x="65" y="130" width="30" height="5" rx="2.5" ry="2.5" fill="#FFFFFF" opacity="0.8" />
  
  <!-- Main Content -->
  <rect x="130" y="70" width="200" height="40" rx="5" ry="5" fill="#EEEEEE" />
  
  <!-- Charts -->
  <rect x="130" y="120" width="95" height="70" rx="5" ry="5" fill="#FBBC05" opacity="0.7" />
  <rect x="235" y="120" width="95" height="70" rx="5" ry="5" fill="#EA4335" opacity="0.7" />
  
  <!-- Chart Lines -->
  <path d="M140,160 L150,150 L160,170 L170,140 L180,155 L190,145 L200,165 L210,150" stroke="#FFFFFF" stroke-width="2" fill="none" />
  <path d="M245,160 C255,140 265,180 275,150 C285,170 295,140 305,160 C315,150 325,170 335,155" stroke="#FFFFFF" stroke-width="2" fill="none" />
  
  <!-- Data Table -->
  <rect x="130" y="200" width="200" height="40" rx="5" ry="5" fill="#EEEEEE" />
  <line x1="130" y1="210" x2="330" y2="210" stroke="#DDDDDD" stroke-width="1" />
  <line x1="130" y1="220" x2="330" y2="220" stroke="#DDDDDD" stroke-width="1" />
  <line x1="130" y1="230" x2="330" y2="230" stroke="#DDDDDD" stroke-width="1" />
  <line x1="200" y1="200" x2="200" y2="240" stroke="#DDDDDD" stroke-width="1" />
  <line x1="265" y1="200" x2="265" y2="240" stroke="#DDDDDD" stroke-width="1" />
</svg>